<?xml version="1.0" encoding="utf-8"?>
<!-- Generator: Adobe Illustrator 25.0.1, SVG Export Plug-In . SVG Version: 6.00 Build 0)  -->
<svg version="1.1" id="Layer_1" xmlns="http://www.w3.org/2000/svg" xmlns:xlink="http://www.w3.org/1999/xlink" x="0px" y="0px"
	 viewBox="0 0 1535.5 267.3" style="enable-background:new 0 0 1535.5 267.3;" xml:space="preserve">
<style type="text/css">
	.st0{opacity:0.2;fill:#FFFFFF;stroke:#707070;enable-background:new    ;}
	.st1{opacity:0.13;fill:#FFFFFF;stroke:#707070;enable-background:new    ;}
</style>
<g transform="translate(79.644 -591.276)">
	<path class="st0" d="M-225.9,664.7c0,0,174.7-24.5,431.3-10s356,35,635.4,36.7s368-45.9,562.8-49.2s313.8,12.5,313.8,12.5
		l46.4,186.8l-2101,16.7L-225.9,664.7z"/>
	<path class="st0" d="M-231.7,630.2c0,0,77.5,39.7,286,47.5s298.1-35.9,602.3-33.4s376.8,39.3,614.7,43.7s444.8-67.8,444.8-67.8
		l63.3,193.5l-2106.6,20L-231.7,630.2z"/>
	<path class="st1" d="M-245.5,592.1c0,0,133.2,79.3,382.7,105.6s432.7-43.9,834.1-46.7s751.3,35.9,751.3,35.9l31.6,134.5H-293.5
		L-245.5,592.1z"/>
</g>
</svg>
