<?xml version="1.0" encoding="utf-8"?>
<!-- Generator: Adobe Illustrator 25.0.1, SVG Export Plug-In . SVG Version: 6.00 Build 0)  -->
<svg version="1.1" id="Layer_1" xmlns="http://www.w3.org/2000/svg" xmlns:xlink="http://www.w3.org/1999/xlink" x="0px" y="0px"
	 viewBox="0 0 391.1 279.7" style="enable-background:new 0 0 391.1 279.7;" xml:space="preserve">
<style type="text/css">
	.st0{opacity:0.2;fill:#FFFFFF;stroke:#707070;enable-background:new    ;}
	.st1{opacity:0.13;fill:#FFFFFF;stroke:#707070;enable-background:new    ;}
</style>
<g transform="translate(79.347 -591.911)">
	<path class="st0" d="M-109.7,671.2c0,0,39.6-23.3,96.4-7.1c56.7,16.2,78.2,37.4,140.4,40.9s83.3-43.4,126.8-45.4
		s69.6,14.6,69.6,14.6l4.7,187l-468.6,2.7L-109.7,671.2z"/>
	<path class="st0" d="M-101.6,624.6c0,0,16.1,42.6,62.8,52.3c46.6,9.7,68.1-36.1,136.5-31.3s83.5,44.2,136.9,50.5
		c53.3,6.3,102.1-69,102.1-69l8.1,205.6l-474.3,7L-101.6,624.6z"/>
	<path class="st1" d="M-87.3,630.9c16.6,27.4,43.3,60.5,82.9,69.5c60.8,13.8,86.3-43.7,170.4-44.2c81.4-0.5,151,42.5,151,42.5
		l2.1,142.3c-142.2,2-284.3,3.9-426.5,5.9C-100.7,774.9-94,702.9-87.3,630.9z"/>
</g>
</svg>
